<svg width="24" height="24" viewBox="0 0 24 24" fill="none" xmlns="http://www.w3.org/2000/svg">
  <path d="M11 4C11 5.10457 10.1046 6 9 6C7.89543 6 7 5.10457 7 4C7 2.89543 7.89543 2 9 2C10.1046 2 11 2.89543 11 4Z" stroke="currentColor" stroke-width="2"/>
  <path d="M19.5 8C20.8807 8 22 9.11929 22 10.5C22 11.8807 20.8807 13 19.5 13H13L9 17V22H7V16L11 12H6L4 14V22H2V13L5 10H14C14 8.89543 14.8954 8 16 8H19.5Z" stroke="currentColor" stroke-width="2" stroke-linecap="round" stroke-linejoin="round"/>
</svg>
